<svg xmlns="http://www.w3.org/2000/svg" viewBox="0 0 168.76 282.51"><defs><style>.cls-1{fill:#1f1813;}.cls-2{fill:#f8e000;}.cls-3{fill:#fff;}</style></defs><title>logo-ddb2</title><g id="Capa_2" data-name="Capa 2"><g id="Logo"><path class="cls-1" d="M168.76,212.46c-.36,34.87-20.74,58.14-55.51,66.47-11,2.63-23.19,3.58-34.85,3.58H7c-4.63,0-7-2.7-7-7V149.37c0-4.27,2.34-7,7-7h73.5c9.7,0,23.37,1,31.65,2.91C147,153.34,168.4,177.58,168.76,212.46Z"/><path class="cls-2" d="M7.18,127.38c-4.77,0-7.18-2.73-7.18-7V7.06C0,2.73,2.41,0,7.18,0H69.89c9,0,21.78.91,29.5,2.66,32.45,7.35,52.44,29.11,52.77,61-.33,31.93-19.71,53.19-52.1,60.81-7,1.66-20,2.88-31.82,2.88Z"/><path class="cls-3" d="M108.44,263.74v-7.46c0-1.2-.51-1.79-1.81-1.79s-2.49,1-2.49,1.74v7.51h-3.09V247.21h3.09v6a5.24,5.24,0,0,1,3.37-1.25c2.55,0,4,1.14,4,3.5v8.28Z"/><rect class="cls-3" x="55.05" y="201.35" width="3.09" height="16.53"/><path class="cls-3" d="M97.87,255.47a3.41,3.41,0,0,0-2.63-1.12c-1.88,0-2.72,1.17-2.72,3.57s.81,3.66,2.79,3.66A3.48,3.48,0,0,0,98,260.45l1.41,2.08A6.33,6.33,0,0,1,95,264c-4,0-5.54-2.38-5.54-6.07,0-3.5,1.73-6,5.65-6a6.07,6.07,0,0,1,4.39,1.51Z"/><path class="cls-3" d="M49.65,217.37c-1.1,3.08-2.06,4.92-5.14,4.92H42.78v-2.37H44.1c1.16,0,1.66-.39,2.23-1.92l-4.44-11.68h3.25l2.77,8.23,2.57-8.23h3.11Z"/><path class="cls-3" d="M50.09,240.81v-7.47c0-1.19-.52-1.79-1.82-1.79s-2.47,1-2.47,1.75v7.51H42.71V229.26h2.57l.25,1.18A5.6,5.6,0,0,1,49.2,229c2.55,0,4,1.14,4,3.5v8.28Z"/><path class="cls-3" d="M58.27,263.74v-7.46c0-1.2-.51-1.79-1.81-1.79s-2.47,1-2.47,1.74v7.51H50.9V252.19h2.57l.24,1.19A5.6,5.6,0,0,1,57.38,252c2.55,0,4,1.14,4,3.5v8.28Z"/><path class="cls-3" d="M47.59,255c-1.64,0-2.24,1.16-2.24,2.49v6.24H42.26v-9.06l-.33-2.49h2.75L45,253.8a3.25,3.25,0,0,1,3.07-1.61h1V255Z"/><path class="cls-3" d="M71.36,213H63.62c.1,1.85,1,2.72,2.85,2.72a3.44,3.44,0,0,0,3.11-1.57l1.86,1.66c-1,1.43-2.46,2.32-5.13,2.32-3.88,0-5.85-1.83-5.85-6.06,0-3.69,1.76-5.94,5.6-6,4.12,0,5.36,2.39,5.36,5.19v.52A11.37,11.37,0,0,1,71.36,213Zm-3-2.29c0-1.62-.76-2.37-2.26-2.37s-2.35.87-2.44,2.56h4.7Z"/><path class="cls-3" d="M66.36,235.92H58.62c.09,1.86,1,2.73,2.84,2.73a3.43,3.43,0,0,0,3.11-1.58l1.86,1.66c-1,1.43-2.45,2.33-5.13,2.33-3.88,0-5.85-1.84-5.85-6.07,0-3.68,1.76-5.94,5.61-6,4.12,0,5.35,2.39,5.35,5.19v.52C66.41,235.1,66.39,235.58,66.36,235.92Zm-3-2.28c0-1.63-.76-2.38-2.26-2.38s-2.34.88-2.44,2.57h4.7Z"/><path class="cls-3" d="M35.26,218.12c-3.65,0-5.67-1.65-5.67-6s2.08-6,5.67-6,5.69,1.65,5.69,6S38.91,218.12,35.26,218.12Zm0-9.72c-1.83,0-2.51,1.06-2.51,3.72s.68,3.71,2.51,3.71,2.54-1.05,2.54-3.71S37.11,208.4,35.26,208.4Z"/><path class="cls-3" d="M86.38,263.9a2.09,2.09,0,0,1-2.29-1.43A4.88,4.88,0,0,1,80.4,264c-2.61,0-3.59-1.16-3.59-3.33,0-3.1,2.76-3.69,7-4v-.42c0-1.3-.61-1.92-2.1-1.92a2.89,2.89,0,0,0-2.69,1.6l-2.17-1.37c1-1.73,2.64-2.58,5-2.58,3.16,0,5,1.2,5,4.13v4.71c0,.7.19,1,.73.93a2.4,2.4,0,0,0,.49,0v2A6.21,6.21,0,0,1,86.38,263.9Zm-2.52-5.35c-2.42.13-4,.35-4,1.91,0,.94.34,1.3,1.43,1.3a2.21,2.21,0,0,0,2.53-2.2Z"/><path class="cls-3" d="M69.31,264a10,10,0,0,1-5.09-1.27V247.21h3.09v6A5.24,5.24,0,0,1,70.73,252c2.87,0,4.41,1.66,4.41,5.76C75.14,262.8,72.66,264,69.31,264Zm.4-9.55a2.41,2.41,0,0,0-2.4,1.54v5.18a4.27,4.27,0,0,0,2.09.48c2.26,0,2.58-1.55,2.58-3.83C72,255.2,71.28,254.44,69.71,254.44Z"/><path class="cls-3" d="M20.27,217.88H14.89V201.8h5.29c4.82,0,7.52,1.85,7.52,7.85C27.7,215.45,25.49,217.88,20.27,217.88Zm0-13.47H18.14v10.85h2.31c2.84,0,3.93-1.58,3.93-5.64C24.38,205.86,23.13,204.41,20.31,204.41Z"/><path class="cls-3" d="M39.05,241a2.09,2.09,0,0,1-2.29-1.43A4.87,4.87,0,0,1,33.07,241c-2.61,0-3.59-1.15-3.59-3.32,0-3.1,2.76-3.7,7.05-4v-.42c0-1.3-.61-1.93-2.1-1.93A2.9,2.9,0,0,0,31.74,233l-2.17-1.37c1-1.73,2.64-2.58,5-2.58,3.16,0,5,1.2,5,4.13v4.71c0,.7.19,1,.73.93a3.73,3.73,0,0,0,.49,0v2A6.21,6.21,0,0,1,39.05,241Zm-2.52-5.36c-2.42.14-4,.36-4,1.92,0,.94.34,1.3,1.43,1.3a2.21,2.21,0,0,0,2.53-2.2Z"/><path class="cls-3" d="M20.27,240.81H14.89V224.73h5.29c4.82,0,7.52,1.85,7.52,7.85C27.7,238.38,25.49,240.81,20.27,240.81Zm0-13.47H18.14V238.2h2.31c2.84,0,3.93-1.59,3.93-5.64C24.38,228.79,23.13,227.34,20.31,227.34Z"/><path class="cls-3" d="M39.73,258.85H32c.09,1.86.95,2.73,2.84,2.73A3.43,3.43,0,0,0,37.94,260l1.86,1.66c-1,1.44-2.45,2.33-5.13,2.33-3.88,0-5.85-1.84-5.85-6.07,0-3.68,1.76-5.94,5.6-6,4.13,0,5.36,2.4,5.36,5.19v.52C39.78,258,39.76,258.51,39.73,258.85Zm-3-2.28c0-1.63-.76-2.38-2.26-2.38s-2.34.88-2.44,2.57h4.7Z"/><path class="cls-3" d="M21.37,263.74H14.89V247.66h6.73c2.95,0,4.79,1.23,4.79,4.13a3.57,3.57,0,0,1-1.9,3.34,3.6,3.6,0,0,1,2.44,3.8C27,262.33,25,263.74,21.37,263.74Zm-.47-13.56H18.09v4h2.72c1.75,0,2.33-.84,2.33-2.1S22.55,250.19,20.9,250.18Zm-.07,6.44H18.09v4.59h2.83c2.06,0,2.76-.82,2.76-2.29C23.68,257.31,22.93,256.62,20.83,256.62Z"/></g></g></svg>